<?xml version="1.0" standalone="no"?>
<!DOCTYPE svg PUBLIC "-//W3C//DTD SVG 20010904//EN"
 "http://www.w3.org/TR/2001/REC-SVG-20010904/DTD/svg10.dtd">
<svg version="1.0" xmlns="http://www.w3.org/2000/svg"
 width="260.000000pt" height="260.000000pt" viewBox="0 0 260.000000 260.000000"
 preserveAspectRatio="xMidYMid meet">
<metadata>
Created by potrace 1.11, written by Peter Selinger 2001-2013
</metadata>
<g transform="translate(0.000000,260.000000) scale(0.100000,-0.100000)"
fill="#000000" stroke="none">
<path d="M1195 2383 c-154 -12 -295 -47 -398 -99 -406 -204 -588 -747 -392
-1172 19 -41 58 -108 86 -150 87 -127 134 -246 153 -387 3 -22 5 -112 6 -200
l0 -160 487 1 488 0 0 115 c0 63 4 119 8 126 5 7 16 8 35 3 108 -34 191 -32
268 5 113 55 141 122 159 377 4 48 8 96 10 105 2 10 4 32 4 50 1 30 5 33 91
68 100 42 116 55 125 105 5 32 -5 53 -104 220 -61 102 -111 194 -112 205 0 11
-2 29 -4 40 -2 11 -6 38 -10 60 -16 107 -78 266 -139 355 -35 53 -126 146
-176 182 -53 38 -153 87 -221 108 -101 30 -268 50 -364 43z"/>
</g>
</svg>
